<?xml version="1.0" encoding="UTF-8" standalone="no" ?>
<!DOCTYPE svg PUBLIC "-//W3C//DTD SVG 1.1//EN" "http://www.w3.org/Graphics/SVG/1.1/DTD/svg11.dtd">
<svg xmlns="http://www.w3.org/2000/svg" xmlns:xlink="http://www.w3.org/1999/xlink" version="1.1" width="1200" height="628" viewBox="0 0 1200 628" xml:space="preserve">
<desc>Created with Fabric.js 5.2.4</desc>
<defs>
</defs>
<g transform="matrix(1 0 0 1 600 314)" id="11c07b10-8a47-48e4-bb08-fbdc9a364bfa"  >
<rect style="stroke: none; stroke-width: 1; stroke-dasharray: none; stroke-linecap: butt; stroke-dashoffset: 0; stroke-linejoin: miter; stroke-miterlimit: 4; fill: rgb(0,0,0); fill-rule: nonzero; opacity: 1;" vector-effect="non-scaling-stroke"  x="-600" y="-314" rx="0" ry="0" width="1200" height="628" />
</g>
<g transform="matrix(Infinity NaN NaN Infinity 0 0)" id="50face3f-6dfe-48a1-a4da-2b03de713a04"  >
</g>
<g transform="matrix(NaN NaN NaN NaN 0 0)"  >
<g style=""   >
</g>
</g>
<g transform="matrix(0.58 0 0 0.58 600 314)" id="b8aecfa9-be11-4e6d-b2a7-8730a5ee8e49"  >
<path style="stroke: rgb(0,0,0); stroke-width: 0; stroke-dasharray: none; stroke-linecap: butt; stroke-dashoffset: 0; stroke-linejoin: miter; stroke-miterlimit: 4; fill: rgb(255,255,255); fill-rule: nonzero; opacity: 1;" vector-effect="non-scaling-stroke"  transform=" translate(-388.69, -162.14)" d="M 0 203.43 L 0 208.05 L 775.08 208.05 L 775.08 203.43 M 55.44 263.24 C 49.98 279.71000000000004 40.44 305.62 35.58 322.7 C 33.620687048389506 322.3781172094338 31.64378167750224 322.17441581142003 29.660000000000004 322.09 C 27.649736483684954 322.17505421619677 25.646249471311243 322.37874206245476 23.65999999999996 322.7 C 18.64 301.51 2 244.33 0.29 239.14 C 3.531273259365884 239.50285033435782 6.788688731216831 239.70310128549622 10.049999999999972 239.73999999999998 C 13.188531519795898 239.7095268827046 16.323114545400458 239.50923403761806 19.44000000000002 239.14 C 24.189999999999998 259.84 30.25 283.34 34.66 300.31 L 34.879999999999995 300.31 C 41.74999999999999 279.94 51.61999999999999 250.41 54.879999999999995 239.14 C 56.79557103585039 239.50832159511276 58.739585385448834 239.70908039197317 60.69000000000001 239.73999999999998 C 62.637043281782475 239.7080478635486 64.57764743272286 239.50729571000304 66.49 239.14 C 68.58 249.91 80.64999999999999 284.29999999999995 84.83 300.31 L 85.07 300.31 C 91 279.94 100.16 248.69 102.25 239.14 C 103.85300040678233 239.4998608959628 105.48757006802262 239.7008325756235 107.13 239.73999999999998 C 108.92773983863567 239.70117089677163 110.71831950203855 239.50035822424044 112.47999999999999 239.14 C 109.29999999999998 248.45 93.39999999999999 295.94 85.99999999999999 322.7 C 84.04397497487417 322.3786348880566 82.0704280853474 322.17493546291087 80.08999999999996 322.09 C 78.07972812764658 322.1749380160775 76.0762342707379 322.3786265581965 74.08999999999996 322.7 C 69.08999999999999 302.82 62.70999999999999 283.09999999999997 55.73999999999999 263.24 z M 226.89 244.46 C 210.98 244.46 201.69 261.18 201.69 282.01 C 201.69 307.8 213.06 316.78 226.07 316.78 C 240 316.78 252.2 304.66999999999996 252.2 278.26 C 252.2 257.26 241.85999999999999 244.45999999999998 226.89 244.45999999999998 M 227.23 237.55999999999997 C 251.85 237.55999999999997 271.23 251.55999999999997 271.23 280.79999999999995 C 271.23 304.79999999999995 252.77 324.28 226.87 324.28 C 202.37 324.28 182.62 311.21 182.62 280.92999999999995 C 182.62 257.05999999999995 200.27 237.55999999999995 227.21 237.55999999999995 M 385.5 246.05 C 385.26 257.05 385.14 267.95 385.14 278.97 C 385.9891515599151 279.11942881897653 386.84812586492114 279.2063289432184 387.71 279.23 C 397.93 279.23 403.5 273.29 403.5 261.90000000000003 C 403.5 247.62000000000003 398.15 246.05000000000004 385.5 246.05000000000004 M 386.2 284.19000000000005 L 385.14 284.19000000000005 L 385.14 289.19000000000005 C 385.14 302.75000000000006 385.37 312.09000000000003 386.07 322.74000000000007 C 379.7626169518759 321.92919347233726 373.3773830481241 321.92919347233726 367.06999999999994 322.74000000000007 C 367.76 312.0900000000001 367.99 302.74000000000007 367.99 289.19000000000005 L 367.99 272.68000000000006 C 367.99 259.12000000000006 367.76 249.79000000000008 367.07 239.14000000000007 C 369.63 239.37000000000006 372.77 239.74000000000007 376.59999999999997 239.74000000000007 C 380.76 239.74000000000007 385.77 239.14000000000007 393.66999999999996 239.14000000000007 C 405.39 239.14000000000007 409.66999999999996 240.21000000000006 413.73999999999995 243.26000000000008 C 418.38999999999993 246.76000000000008 421.28999999999996 252.10000000000008 421.28999999999996 259.2600000000001 C 421.28999999999996 271.0200000000001 414.79999999999995 278.5200000000001 403.28999999999996 281.5400000000001 C 410.72999999999996 295.24000000000007 419.53 309.06000000000006 428.02 322.7300000000001 C 424.53999999999996 322.49000000000007 421.02 322.12000000000006 417.58 322.12000000000006 C 414.14 322.12000000000006 410.49 322.49000000000007 406.99 322.7300000000001 z M 546.56 272.68 C 546.56 259.12 546.31 249.79000000000002 545.6099999999999 239.14000000000001 C 548.1599999999999 239.37 551.3 239.74 555.1399999999999 239.74 C 558.9799999999998 239.74 562.1399999999999 239.37 564.6699999999998 239.14000000000001 C 563.9699999999998 249.79000000000002 563.7299999999998 259.14 563.7299999999998 272.68 L 563.7299999999998 289.15 C 563.7299999999998 298.15 563.8599999999998 307.32 563.9699999999998 313.62 C 572.860716203362 313.6302573323722 581.7438122495129 313.0992752754782 590.5699999999999 312.03 C 590.2431195682882 313.83482598435234 590.0824467187581 315.66582699878893 590.0899999999998 317.50000000000006 C 590.0664357286339 319.24209000064457 590.227332023594 320.9817811899009 590.5699999999998 322.69000000000005 C 586.3699999999998 322.58000000000004 580.9299999999998 322.11000000000007 570.2299999999998 322.11000000000007 C 551.2999999999998 322.11000000000007 548.1599999999997 322.4600000000001 545.6099999999998 322.69000000000005 C 546.3099999999998 312.03000000000003 546.5599999999998 302.69000000000005 546.5599999999998 289.15000000000003 z M 719.15 291.82 C 719.15 298.36 719.15 313.13 719.27 315.42 C 721.6 315.56 724.72 315.81 729.48 315.81 C 746.91 315.81 757.9300000000001 303.45 757.9300000000001 278.26 C 757.9300000000001 258.4 747.3700000000001 246.04 731.34 246.04 C 727.307953591176 245.995077806824 723.2769730045994 246.1987976210586 719.27 246.64999999999998 C 719.15 248.94 719.15 263.72 719.15 270.25 z M 702 272.68 C 702 259.12 701.77 249.79000000000002 701.08 239.14000000000001 C 703.62 239.37 706.74 239.74 710.59 239.74 C 715.6700000000001 239.74 721.39 239.14000000000001 731.59 239.14000000000001 C 758.0600000000001 239.14000000000001 776.2900000000001 247.98000000000002 776.2900000000001 278.49 C 776.2900000000001 305.15000000000003 757.94 322.69 736.1200000000001 322.69 C 724.4900000000001 322.69 716.6100000000001 322.11 710.5700000000002 322.11 C 706.7200000000001 322.11 703.5700000000002 322.46000000000004 701.0600000000002 322.69 C 701.7500000000002 312.03 701.9800000000001 302.69 701.9800000000001 289.15 z M 1.56 2.91 L 51.56 2.91 L 69.56 98.28 L 95.91 2.91 L 145.73 2.91 L 172.14 98.14999999999999 L 190.14 2.9099999999999966 L 239.89999999999998 2.9099999999999966 L 202.34999999999997 173.27 L 150.72999999999996 173.27 L 120.85 66 L 91.08 173.27 L 39.46 173.27 z M 361.84 145.15 L 302.07 145.15 L 293.77 173.27 L 240 173.27 L 304 2.91 L 361.42 2.91 L 425.42 173.27 L 370.36 173.27 z M 350.91999999999996 108.31 L 332.11999999999995 47.07 L 313.50999999999993 108.31 z M 433.05 116.91 L 483.13 113.77 Q 484.77 125.97999999999999 489.76 132.35999999999999 Q 497.89 142.70999999999998 513 142.70999999999998 Q 524.26 142.70999999999998 530.37 137.42 Q 536.48 132.13 536.47 125.15999999999998 Q 536.47 118.52999999999999 530.6600000000001 113.30999999999999 Q 524.8500000000001 108.08999999999999 503.6600000000001 103.42999999999999 Q 469.0300000000001 95.63999999999999 454.2700000000001 82.74 Q 439.5100000000001 69.84 439.4400000000001 49.849999999999994 C 439.45590510899996 40.99523848860606 442.104857020731 32.34524440102179 447.05 25 Q 454.65000000000003 13.33 469.94 6.640000000000001 Q 485.22999999999996 -0.049999999999998934 511.84 0 Q 544.5 0 561.63 12.14 Q 578.76 24.28 582 50.78 L 532.38 53.69 Q 530.38 42.19 524.07 36.959999999999994 Q 517.7600000000001 31.72999999999999 506.58000000000004 31.729999999999993 Q 497.40000000000003 31.729999999999993 492.75000000000006 35.61999999999999 C 489.81261437271706 37.88256356952632 488.0941822995154 41.38225211430476 488.1000000000001 45.089999999999996 Q 488.1000000000001 49.14999999999999 491.94000000000005 52.40999999999999 Q 495.78000000000003 55.66999999999999 509.6000000000001 58.68999999999999 Q 544.1100000000001 66.13 559.0500000000001 73.69 Q 573.99 81.25 580.7800000000001 92.57 C 585.3388169958422 100.18457878411458 587.6929858750192 108.9157757154153 587.58 117.78999999999999 C 587.6306005470215 128.5382501348019 584.472514912598 139.057077810208 578.51 148 C 572.3248158090889 157.3469817883326 563.5112313820546 164.653940847461 553.18 169 Q 536.9 176.14 512.18 176.15 Q 468.7099999999999 176.15 451.97999999999996 159.41 Q 435.25 142.67 433.04999999999995 116.91 z M 614.34 2.91 L 667 2.91 L 667 62.519999999999996 L 724.5 62.519999999999996 L 724.5 2.91 L 777.38 2.91 L 777.38 173.27 L 724.5 173.27 L 724.5 104.36000000000001 L 667 104.36000000000001 L 667 173.27 L 614.34 173.27 z" stroke-linecap="round" />
</g>
</svg>